# xmcd
#
# Track frame offsets:
#	150
#	23237
#	48289
#	60007
#	78310
#	91272
#	107382
#	120005
#	139717
#	151365
#	177602
#	192147
#	209465
#	235397
#	256665
#
# Disc length: 3727 seconds
# Revision: 1
# Processed by: cddbd v1.5.2PL0 Copyright (c) Steve Scherf et al.
# Submitted via: dBpowerAMP V12.0
#
DISCID=b10e8d0f
DTITLE=Ivan Applerouth - Blue and Instrumental!
DYEAR=2011
DGENRE=blues
TTITLE0=Olsen Ranch Shuffle (take 2)
TTITLE1=Blues a la King
TTITLE2=T-Boned Again
TTITLE3=Tribute to Magic Sam
TTITLE4=The Twisted Top
TTITLE5=Frosty
TTITLE6=Strolling With Bone
TTITLE7=The Uptown Downtown Groove
TTITLE8=Junior Jumps
TTITLE9=Magic's Time
TTITLE10=Booky's Boogie
TTITLE11=Strollin' Blues
TTITLE12=Drivin' With Ivan
TTITLE13=Stranger on the Shore
TTITLE14=Olsen Ranch Shuffle (take 3)
EXTD=
EXTT0=
EXTT1=
EXTT2=
EXTT3=
EXTT4=
EXTT5=
EXTT6=
EXTT7=
EXTT8=
EXTT9=
EXTT10=
EXTT11=
EXTT12=
EXTT13=
EXTT14=
PLAYORDER=
